<svg xmlns="http://www.w3.org/2000/svg" viewBox="0 0 384.5 129.6"><defs><style>.cls-1{fill:#58595b;}.cls-2{fill:#00833e;}</style></defs><g id="Layer_2" data-name="Layer 2"><g id="Layer_1-2" data-name="Layer 1"><path class="cls-1" d="M206.41,39.24c-9.52-9.37-20.19-13.56-34.59-13.56C145.67,25.68,126,45.25,126,71.19v.24a44.72,44.72,0,0,0,45.14,45.27c14.95,0,25.71-4.68,36-15.67l.94-1a.28.28,0,0,0,0-.4L194.21,85.7a.28.28,0,0,0-.39,0l-1,.93c-6.6,6-12.17,9.47-21.1,9.47-13,0-22.84-10.7-22.84-24.9V71c0-14.05,9.81-24.65,22.84-24.65,7.33,0,13.46,2.72,20.49,9.11l1.09,1a.28.28,0,0,0,.21.08.37.37,0,0,0,.2-.1l13.69-15.8a.28.28,0,0,0,0-.38Z"></path><path class="cls-1" d="M212.8,71.19v.24A44.72,44.72,0,0,0,258,116.7c14.94,0,25.7-4.68,36-15.67l.94-1a.29.29,0,0,0,0-.4L281.06,85.7a.28.28,0,0,0-.39,0l-1,.93c-6.61,6-12.17,9.47-21.11,9.47-13,0-22.84-10.7-22.84-24.9V71c0-14.05,9.82-24.65,22.84-24.65,7.33,0,13.46,2.72,20.5,9.11l1.09,1a.27.27,0,0,0,.2.08.32.32,0,0,0,.2-.1l13.7-15.8a.27.27,0,0,0,0-.38l-1-.95c-9.52-9.37-20.19-13.56-34.59-13.56C232.52,25.68,212.8,45.25,212.8,71.19Z"></path><path class="cls-1" d="M384.5,115.25V38.76a11.63,11.63,0,0,0-11.62-11.62h-10.2V75.9L330,32.92a14.72,14.72,0,0,0-11.66-5.78H305.83v88.11h21.82V64.79l34.1,44.76a14.54,14.54,0,0,0,11.5,5.7Z"></path><path class="cls-2" d="M97.3,104.51a4.17,4.17,0,1,0,1.48,5.7,4,4,0,0,0,.56-2.11A4.14,4.14,0,0,0,98.8,106,4.08,4.08,0,0,0,97.3,104.51Zm.84,5.29a3.41,3.41,0,0,1-3,1.7,3.28,3.28,0,0,1-1.68-.45,3.4,3.4,0,0,1-1.24-1.23,3.33,3.33,0,0,1-.46-1.72,3.46,3.46,0,0,1,1.69-2.94,3.4,3.4,0,0,1,4.65,4.64Z"></path><path class="cls-2" d="M96.18,108.69a1.22,1.22,0,0,0-.44-.28v0a1.34,1.34,0,0,0,.89-.39,1.21,1.21,0,0,0,.33-.87,1.08,1.08,0,0,0-.38-.87,1.4,1.4,0,0,0-1-.34H93.45v4.44h.82v-1.84h.37a.81.81,0,0,1,.48.12,1.55,1.55,0,0,1,.42.45,7.85,7.85,0,0,1,.5.88l.21.39h1l-.52-.88A4.09,4.09,0,0,0,96.18,108.69Zm-.91-.84h-1v-1.27h1a1,1,0,0,1,.6.16.52.52,0,0,1,.23.47.57.57,0,0,1-.21.47A1,1,0,0,1,95.27,107.85Z"></path><path class="cls-2" d="M39.29,74.54C6.57,55.12,5.74,32.72,6.64,21.47a.23.23,0,0,0-.46-.07C3.46,34.27,2.1,62.65,32.67,79.65c49.59,26.14,43.71,44.56,43.71,44.56S85.25,100.1,39.29,74.54Z"></path><path class="cls-2" d="M35.37,88.55C3.23,72.22,1.23,47.18.94,39.25a24.73,24.73,0,0,0-.73,4.47C-.8,54.65.67,77.79,30,93.46c44,19.87,40.11,36.14,40.11,36.14S76.67,109.65,35.37,88.55Z"></path><path class="cls-2" d="M105.27,57.88l-20-35.4L91.41,1.32C41.09-5.76,31.94,17.65,29,25c-1.73,4.31-2.63,10.87-3,14.54a67.52,67.52,0,0,0,8.51,8.93,33.24,33.24,0,0,1,4-16.31C49.67,12.7,76.64,17.84,76.64,17.84,50.15,17,36.25,36.25,39.53,57.59c-25.48-18-28-38.69-26.81-50.41a.28.28,0,0,0-.56-.09c-3,14.55-3.11,41.77,26,59.24C88.75,96.35,82,115,82,115h0s.06-.09.15-.24c1.65-2.72,16.55-28.65-5.51-43.22C57,58.59,63.7,43.19,63.7,43.19,61.49,57.27,81.44,59,81.44,59,86.08,67.55,112.2,70.29,105.27,57.88Z"></path></g></g></svg>