<?xml version="1.0" encoding="UTF-8"?>
<svg width="1374px" height="362px" viewBox="0 0 1374 362" version="1.1" xmlns="http://www.w3.org/2000/svg" xmlns:xlink="http://www.w3.org/1999/xlink">
    <title>Group 23</title>
    <g id="Page-1" stroke="none" stroke-width="1" fill="none" fill-rule="evenodd">
        <g id="Group-23">
            <g id="Group-11" transform="translate(515.000000, 21.000000)" fill="#0A4875">
                <path d="M188.005396,57.63477 C192.073718,57.63477 193.177587,58.7415827 191.699261,63.5429674 L125.537348,220.114097 C108.909106,258.887616 105.215241,263.692898 63.814313,263.692898 C25.385639,263.692898 22.7956431,259.257853 18.3567646,220.114097 L0.250196954,63.5429674 C0.250196954,58.7415827 1.35796628,57.63477 5.42238754,57.63477 L42.0099801,57.63477 C45.3449899,57.63477 45.7038447,58.7415827 46.0783019,63.5429674 L61.2282177,210.515224 C62.7065436,223.434535 63.814313,225.289615 70.1059747,225.289615 C77.8681611,225.289615 79.705342,223.434535 85.2558904,210.515224 L145.496698,63.5429674 C147.349482,58.7415827 148.082794,57.63477 151.417803,57.63477 L188.005396,57.63477 Z" id="Fill-1"></path>
                <path d="M365.078812,155.012074 L363.237731,166.084099 C362.11826,173.103006 359.906622,176.057105 349.183883,176.057105 L232.392231,176.057105 C227.22004,215.200861 234.607769,224.063158 270.46205,224.063158 L333.292854,224.063158 C336.99842,224.063158 338.465044,225.910444 338.102289,229.605016 L334.408424,252.493435 C334.037868,256.558243 331.810627,258.035293 328.116763,258.779663 C308.527968,261.725968 285.24921,262.844472 261.592094,262.844472 C189.524678,262.844472 176.590301,242.150192 189.524678,159.076883 C202.829612,75.609954 222.777261,54.931263 294.489723,54.931263 C363.971043,54.931263 377.279877,74.8772752 365.078812,155.012074 M237.193865,143.924461 L321.836803,143.924461 C327.757908,104.051923 321.462345,93.704783 288.568617,93.704783 C254.204365,93.704783 244.218838,104.051923 237.193865,143.924461" id="Fill-3"></path>
                <path d="M535.871099,58.9972408 C539.202208,59.7260224 540.672733,61.5811029 539.93942,64.901541 L536.604411,86.690942 C536.245556,90.385514 534.018315,92.2366972 529.961695,92.2366972 L462.321456,92.2366972 C446.426527,92.2366972 436.811557,97.0341847 434.974376,108.476446 L434.225462,112.911491 C433.117692,121.76989 436.452702,128.792695 451.228161,134.696995 L497.067967,152.429381 C527.738355,164.604321 529.961695,183.443521 526.256129,206.343632 L525.522817,211.141119 C518.497843,253.238974 488.935224,262.845641 440.521024,262.845641 C408.356708,262.845641 381.009627,260.616427 369.18302,259.513511 C364.744141,259.13548 363.636372,257.303783 364.381386,253.971653 L368.07525,231.083234 C368.438006,227.018425 370.661346,225.167242 374.729668,225.167242 L446.426527,225.167242 C471.187511,225.167242 479.694712,222.224835 481.535793,209.286039 L482.280807,205.599261 C483.763034,196.736965 480.057467,190.82487 464.533094,184.550333 L418.330532,166.085268 C391.357909,155.745922 386.919031,133.590182 390.25014,111.808576 L391.732366,104.415534 C397.637869,64.164965 432.747136,54.9324322 478.949698,54.9324322 C494.840727,54.9324322 514.803978,55.6690082 535.871099,58.9972408" id="Fill-5"></path>
                <path d="M637.042813,0.283554564 C641.481692,-0.834949831 642.963918,1.39036728 642.215004,5.4512787 L634.082261,57.144109 L679.290171,57.144109 C683.34289,57.144109 684.825117,58.9952922 684.462361,62.685967 L680.39794,85.9485201 C680.023483,90.0094315 677.807944,91.8606147 673.743523,91.8606147 L628.547314,91.8606147 L610.799602,204.4905 C608.213506,220.74194 612.652385,224.062378 630.762853,224.062378 L647.028339,224.062378 C651.084959,224.062378 652.937743,225.539427 652.563285,229.230102 L648.869421,253.61116 C647.761651,257.672071 645.550013,259.511563 641.844447,260.25983 C631.496165,262.099322 620.789029,262.843692 615.242381,262.843692 C586.413074,262.843692 556.838754,262.099322 563.867628,217.787841 L583.826979,91.8606147 L562.759859,91.8606147 C558.691537,91.8606147 557.213211,90.0094315 557.583767,85.9485201 L561.277632,62.685967 C561.652089,58.9952922 564.238185,57.144109 567.932049,57.144109 L589.361925,57.144109 L596.012441,14.6838115 C596.761356,10.981445 598.602437,9.51608736 601.933546,8.77171684 L637.042813,0.283554564 Z" id="Fill-7"></path>
                <path d="M858.066197,115.495353 L837.369634,244.006442 C836.999077,248.800032 835.532453,252.490707 828.503579,254.719921 C808.16977,260.261779 775.276042,262.845641 743.860641,262.845641 C692.123132,262.845641 667.350446,254.719921 675.483189,201.17201 C683.245375,154.264976 709.859143,142.448581 755.328393,142.448581 L808.914784,142.448581 L811.875337,123.250837 C814.824188,102.576043 795.871191,93.7020549 766.308572,93.7020549 L705.318849,93.7020549 C701.254428,93.7020549 700.146659,92.5952422 700.879971,87.8016519 L704.585537,65.6420143 C705.318849,61.206969 706.801076,60.4742902 710.49494,59.7299197 C733.812705,55.4780441 754.833018,55.5520075 774.059056,55.5520075 C839.101498,55.5520075 864.357859,75.6111232 858.066197,115.495353 L858.066197,115.495353 Z M752.738398,174.581225 C733.141802,174.581225 723.167978,180.855761 720.207425,199.324724 C716.884117,220.369755 726.12463,225.537479 753.47561,225.537479 C762.716123,225.537479 783.034328,224.8048 796.343163,221.476567 L803.742594,174.581225 L752.738398,174.581225 Z" id="Fill-9"></path>
            </g>
            <polyline id="Fill-12" fill="#1C9AD6" points="275.455216 361 250 284.007812 297 284 275.50641 360.902344"></polyline>
            <g id="Group-19">
                <path d="M476.963481,78.4186104 L261.52652,78.1687963 L212.53004,78.1102461 L183.453018,78.075116 L251.092518,284.316206 L298.246556,284.308399 L369.668528,284.288882 C386.012399,284.351336 398.800199,274.518808 405.045767,259.408955 L479.926223,82.7435177 C480.824023,80.6240009 479.266535,78.4303205 476.963481,78.4186104" id="Fill-13" fill="#0A4875"></path>
                <path d="M0.262313852,279.688789 C-0.658907414,281.909793 0.968843721,284.357191 3.37338736,284.364998 L110.703472,284.341578 L61.1644079,133.278186 L0.262313852,279.688789 Z" id="Fill-15" fill="#0A4875"></path>
                <path d="M251.097202,284.331819 L251.093299,284.316206 L183.453798,78.075116 L162.070535,12.8853353 C159.623053,5.21135718 152.495299,0.000390334595 144.44242,0.000390334595 L17.458314,0.000390334595 L61.1616754,133.280138 L110.700739,284.347433 L132.173783,349.814351 C134.070874,355.76305 139.12588,360.041117 145.133336,361.03647 C146.015522,361.184798 146.917226,361.266768 147.834544,361.266768 L275.763292,361.266768 L276.329297,361.266768 L251.097202,284.331819 Z" id="Fill-17" fill="#3AC1CC"></path>
            </g>
            <polyline id="Fill-20" fill="#1C9AD6" points="236.047164 0 212 77.9493608 261 78 236.16818 0"></polyline>
            <path d="M380.997111,12.5922117 C378.624456,5.09563527 371.678478,0 363.829563,0 L360.166996,0 L237,0 L271.167017,107.779932 L343.284792,122.808335 L421,139 L380.997111,12.5922117 Z" id="Fill-21" fill="#3AC1CC"></path>
        </g>
    </g>
</svg>